<svg id="arIconAnimated" viewBox="0 0 35 35" xmlns="http://www.w3.org/2000/svg"
  xmlns:xlink="http://www.w3.org/1999/xlink">
  <g transform="matrix(1,0,0,1,0,0)">
    <g id="5521:3333" opacity="1" style="mix-blend-mode:normal">
      <g>
        <g>
          <g transform="matrix(1,0,0,1,4.4502,2.9502)">
            <g id="5521:3334" opacity="1" style="mix-blend-mode:normal">
              <g>
                <g>
                  <g transform="matrix(1,0,0,1,8,10)">
                    <g id="5521:3335" opacity="1" style="mix-blend-mode:normal">
                      <g>
                        <g>
                          <path id="5521:3335_fill_path"
                            d="M10.03122,0.47529c0.17944,0.40375 -0.00239,0.87652 -0.40614,1.05596l-4.02491,1.78885v3.9801c0,0.44183 -0.35817,0.8 -0.8,0.8c-0.44183,0 -0.8,-0.35817 -0.8,-0.8v-4.00557l-3.55777,-1.77889c-0.39518,-0.19759 -0.55536,-0.67813 -0.35777,-1.07331c0.19759,-0.39518 0.67813,-0.55536 1.07331,-0.35777l3.66232,1.83116l4.155,-1.84667c0.40375,-0.17944 0.87652,0.00239 1.05596,0.40614z"
                            fill-rule="evenodd" fill="rgb(35, 36, 81)" fill-opacity="1" style="mix-blend-mode:NORMAL">
                          </path>
                        </g>
                      </g>
                    </g>
                  </g>
                  <g transform="matrix(1,0,0,1,0,3.5)">
                    <g id="5521:3336" opacity="1" style="mix-blend-mode:normal">
                      <g>
                        <g>
                          <path id="5521:3336_fill_path"
                            d="M6.51554,0.4424c0.19759,0.39518 0.03741,0.87572 -0.35777,1.07331l-3.56892,1.78446l3.56892,1.78446c0.39518,0.19759 0.55536,0.67813 0.35777,1.07331c-0.19759,0.39518 -0.67813,0.55536 -1.07331,0.35777l-3.84223,-1.92111v4.20557c0,0.44183 -0.35817,0.8 -0.8,0.8c-0.44183,0 -0.8,-0.35817 -0.8,-0.8v-5.5c0,-0.30302 0.1712,-0.58003 0.44223,-0.71554l5,-2.5c0.39518,-0.19759 0.87572,-0.03741 1.07331,0.35777z"
                            fill-rule="evenodd" fill="rgb(35, 36, 81)" fill-opacity="1" style="mix-blend-mode:NORMAL">
                          </path>
                        </g>
                      </g>
                    </g>
                  </g>
                  <g transform="matrix(1,0,0,1,0,16)">
                    <g id="5521:3337" opacity="1" style="mix-blend-mode:normal">
                      <g>
                        <g>
                          <path id="5521:3337_fill_path"
                            d="M0.8,0c0.44183,0 0.8,0.35817 0.8,0.8v4.20557l3.84223,-1.92111c0.39518,-0.19759 0.87572,-0.03741 1.07331,0.35777c0.19759,0.39518 0.03741,0.87572 -0.35777,1.07331l-3.56892,1.78446l3.56892,1.78446c0.39518,0.19759 0.55536,0.67813 0.35777,1.07331c-0.19759,0.39518 -0.67813,0.55536 -1.07331,0.35777l-5,-2.5c-0.27103,-0.13551 -0.44223,-0.41252 -0.44223,-0.71554v-5.5c0,-0.44183 0.35817,-0.8 0.8,-0.8z"
                            fill-rule="evenodd" fill="rgb(35, 36, 81)" fill-opacity="1" style="mix-blend-mode:NORMAL">
                          </path>
                        </g>
                      </g>
                    </g>
                  </g>
                  <g transform="matrix(1,0,0,1,7.5,22.5)">
                    <g id="5521:3338" opacity="1" style="mix-blend-mode:normal">
                      <g>
                        <g>
                          <path id="5521:3338_fill_path"
                            d="M5.3002,0c0.44183,0 0.8,0.35817 0.8,0.8v3.76899l3.37509,-1.50004c0.40375,-0.17944 0.87652,0.00239 1.05596,0.40614c0.17944,0.40375 -0.00239,0.87652 -0.40614,1.05596l-4.5,2c-0.20685,0.09193 -0.44297,0.09193 -0.64982,0l-4.5,-2c-0.40375,-0.17944 -0.58558,-0.65221 -0.40614,-1.05596c0.17944,-0.40375 0.65221,-0.58558 1.05596,-0.40614l3.37509,1.50004v-3.76899c0,-0.44183 0.35817,-0.8 0.8,-0.8z"
                            fill-rule="evenodd" fill="rgb(35, 36, 81)" fill-opacity="1" style="mix-blend-mode:NORMAL">
                          </path>
                        </g>
                      </g>
                    </g>
                  </g>
                  <g transform="matrix(1,0,0,1,19.5,16)">
                    <g id="5521:3339" opacity="1" style="mix-blend-mode:normal">
                      <g>
                        <g>
                          <path id="5521:3339_fill_path"
                            d="M5.80018,0c0.44183,0 0.8,0.35817 0.8,0.8v5.5c0,0.30302 -0.1712,0.58003 -0.44223,0.71554l-5,2.5c-0.39518,0.19759 -0.87572,0.03741 -1.07331,-0.35777c-0.19759,-0.39518 -0.03741,-0.87572 0.35777,-1.07331l3.56892,-1.78446l-3.56892,-1.78446c-0.39518,-0.19759 -0.55536,-0.67813 -0.35777,-1.07331c0.19759,-0.39518 0.67813,-0.55536 1.07331,-0.35777l3.84223,1.92112v-4.20557c0,-0.44183 0.35817,-0.8 0.8,-0.8z"
                            fill-rule="evenodd" fill="rgb(35, 36, 81)" fill-opacity="1" style="mix-blend-mode:NORMAL">
                          </path>
                        </g>
                      </g>
                    </g>
                  </g>
                  <g transform="matrix(1,0,0,1,19.5,3.5)">
                    <g id="5521:3340" opacity="1" style="mix-blend-mode:normal">
                      <g>
                        <g>
                          <path id="5521:3340_fill_path"
                            d="M0.08463,0.4424c0.19759,-0.39518 0.67813,-0.55536 1.07331,-0.35777l5,2.5c0.27103,0.13551 0.44223,0.41252 0.44223,0.71554v5.5c0,0.44183 -0.35817,0.8 -0.8,0.8c-0.44183,0 -0.8,-0.35817 -0.8,-0.8v-4.20557l-3.84223,1.92111c-0.39518,0.19759 -0.87572,0.03741 -1.07331,-0.35777c-0.19759,-0.39518 -0.03741,-0.87572 0.35777,-1.07331l3.56892,-1.78446l-3.56892,-1.78446c-0.39518,-0.19759 -0.55536,-0.67813 -0.35777,-1.07331z"
                            fill-rule="evenodd" fill="rgb(35, 36, 81)" fill-opacity="1" style="mix-blend-mode:NORMAL">
                          </path>
                        </g>
                      </g>
                    </g>
                  </g>
                  <g transform="matrix(1,0,0,1,7.5,0)">
                    <g id="5521:3341" opacity="1" style="mix-blend-mode:normal">
                      <g>
                        <g>
                          <path id="5521:3341_fill_path"
                            d="M4.97529,0.06895c0.20685,-0.09193 0.44297,-0.09193 0.64982,0l4.5,2c0.40375,0.17944 0.58558,0.65221 0.40614,1.05596c-0.17944,0.40375 -0.65221,0.58558 -1.05596,0.40614l-3.37509,-1.50004v3.76899c0,0.44183 -0.35817,0.8 -0.8,0.8c-0.44183,0 -0.8,-0.35817 -0.8,-0.8v-3.76899l-3.37509,1.50004c-0.40375,0.17944 -0.87652,-0.00239 -1.05596,-0.40614c-0.17944,-0.40375 0.00239,-0.87652 0.40614,-1.05596z"
                            fill-rule="evenodd" fill="rgb(35, 36, 81)" fill-opacity="1" style="mix-blend-mode:NORMAL">
                          </path>
                        </g>
                      </g>
                    </g>
                  </g>
                </g>
              </g>
            </g>
          </g>
          <g transform="matrix(1,0,0,1,6,5)">
            <g id="5521:3342" opacity="0" style="mix-blend-mode:normal">
              <g>
                <g>
                  <path id="5521:3342_fill_path"
                    d="M0.51041,5l10.45167,-4.8632c0.33108,-0.1824 0.74475,-0.1824 1.07583,0l10.45455,4.8632c0.33838,0.18642 0.50754,0.50483 0.50754,0.82319v12.35362c0,0.33719 -0.19265,0.64971 -0.50754,0.82319l-10.45072,4.85961c-0.31237,0.17352 -0.72115,0.19963 -1.07966,0.00211l-10.45455,-4.86172c-0.3149,-0.17348 -0.50754,-0.486 -0.50754,-0.82319l0,-12.3521c0,-0.36501 0.21211,-0.66173 0.51041,-0.82471zM11.5,10l8.42253,-4.17681l-8.42253,-3.74378l-8.42253,3.74531zM10.45455,11.6629l-8.36364,-4.14271v10.11315l8.36364,3.70972zM12.54545,11.6629v9.68016l8.36364,-3.70972v-10.11467z"
                    fill-rule="nonzero" fill="rgb(35, 36, 81)" fill-opacity="1" style="mix-blend-mode:NORMAL"></path>
                </g>
              </g>
            </g>
          </g>
        </g>
      </g>
    </g>
  </g>
  <animate href="#5521:3335" attributeName="opacity" values="1;1;0;0;1;1" dur="0.4s" repeatCount="1" calcMode="spline"
    keyTimes="0;0.2;0.22;0.75;0.77;1"
    keySplines="0.5 0.35 0.15 1;0.5 0.35 0.15 1;0.5 0.35 0.15 1;0.5 0.35 0.15 1;0.5 0.35 0.15 1" additive="replace"
    fill="freeze"></animate>
  <animateTransform href="#5521:3336" attributeName="transform" type="translate" values="0 0;2 1;2 1;0 0" dur="0.4s"
    repeatCount="1" calcMode="spline" keyTimes="0;0.2;0.8;1" keySplines="0.5 0 1 1;0.5 0.35 0.15 1;0 0 0.15 1"
    additive="sum" fill="freeze"></animateTransform>
  <animate href="#5521:3336" attributeName="opacity" values="1;1;0;0;1;1" dur="0.4s" repeatCount="1" calcMode="spline"
    keyTimes="0;0.2;0.22;0.75;0.77;1"
    keySplines="0.5 0.35 0.15 1;0.5 0.35 0.15 1;0.5 0.35 0.15 1;0.5 0.35 0.15 1;0.5 0.35 0.15 1" additive="replace"
    fill="freeze"></animate>
  <animateTransform href="#5521:3337" attributeName="transform" type="translate" values="0 0;2 -2;2 -2;0 0" dur="0.4s"
    repeatCount="1" calcMode="spline" keyTimes="0;0.2;0.8;1" keySplines="0.5 0 1 1;0.5 0.35 0.15 1;0 0 0.15 1"
    additive="sum" fill="freeze"></animateTransform>
  <animate href="#5521:3337" attributeName="opacity" values="1;1;0;0;1;1" dur="0.4s" repeatCount="1" calcMode="spline"
    keyTimes="0;0.2;0.22;0.75;0.77;1"
    keySplines="0.5 0.35 0.15 1;0.5 0.35 0.15 1;0.5 0.35 0.15 1;0.5 0.35 0.15 1;0.5 0.35 0.15 1" additive="replace"
    fill="freeze"></animate>
  <animateTransform href="#5521:3338" attributeName="transform" type="translate" values="0 0;0 -3;0 -3;0 0" dur="0.4s"
    repeatCount="1" calcMode="spline" keyTimes="0;0.2;0.8;1" keySplines="0.5 0 1 1;0.5 0.35 0.15 1;0 0 0.15 1"
    additive="sum" fill="freeze"></animateTransform>
  <animate href="#5521:3338" attributeName="opacity" values="1;1;0;0;1;1" dur="0.4s" repeatCount="1" calcMode="spline"
    keyTimes="0;0.2;0.22;0.75;0.77;1"
    keySplines="0.5 0.35 0.15 1;0.5 0.35 0.15 1;0.5 0.35 0.15 1;0.5 0.35 0.15 1;0.5 0.35 0.15 1" additive="replace"
    fill="freeze"></animate>
  <animateTransform href="#5521:3339" attributeName="transform" type="translate" values="0 0;-2 -2;-2 -2;0 0" dur="0.4s"
    repeatCount="1" calcMode="spline" keyTimes="0;0.2;0.8;1" keySplines="0.5 0 1 1;0.5 0.35 0.15 1;0 0 0.15 1"
    additive="sum" fill="freeze"></animateTransform>
  <animate href="#5521:3339" attributeName="opacity" values="1;1;0;0;1;1" dur="0.4s" repeatCount="1" calcMode="spline"
    keyTimes="0;0.2;0.22;0.75;0.77;1"
    keySplines="0.5 0.35 0.15 1;0.5 0.35 0.15 1;0.5 0.35 0.15 1;0.5 0.35 0.15 1;0.5 0.35 0.15 1" additive="replace"
    fill="freeze"></animate>
  <animateTransform href="#5521:3340" attributeName="transform" type="translate" values="0 0;-2 1;-2 1;0 0" dur="0.4s"
    repeatCount="1" calcMode="spline" keyTimes="0;0.2;0.8;1" keySplines="0.5 0 1 1;0.5 0.35 0.15 1;0 0 0.15 1"
    additive="sum" fill="freeze"></animateTransform>
  <animate href="#5521:3340" attributeName="opacity" values="1;1;0;0;1;1" dur="0.4s" repeatCount="1" calcMode="spline"
    keyTimes="0;0.2;0.22;0.75;0.77;1"
    keySplines="0.5 0.35 0.15 1;0.5 0.35 0.15 1;0.5 0.35 0.15 1;0.5 0.35 0.15 1;0.5 0.35 0.15 1" additive="replace"
    fill="freeze"></animate>
  <animateTransform href="#5521:3341" attributeName="transform" type="translate" values="0 0;0 2;0 2;0 0" dur="0.4s"
    repeatCount="1" calcMode="spline" keyTimes="0;0.2;0.8;1" keySplines="0.5 0 1 1;0.5 0.35 0.15 1;0 0 0.15 1"
    additive="sum" fill="freeze"></animateTransform>
  <animate href="#5521:3341" attributeName="opacity" values="1;1;0;0;1;1" dur="0.4s" repeatCount="1" calcMode="spline"
    keyTimes="0;0.2;0.22;0.75;0.77;1"
    keySplines="0.5 0.35 0.15 1;0.5 0.35 0.15 1;0.5 0.35 0.15 1;0.5 0.35 0.15 1;0.5 0.35 0.15 1" additive="replace"
    fill="freeze"></animate>
  <animate href="#5521:3342" attributeName="opacity" values="0;0;1;1;0;0" dur="0.4s" repeatCount="1" calcMode="spline"
    keyTimes="0;0.2;0.22;0.77;0.8;1"
    keySplines="0.5 0.35 0.15 1;0.5 0.35 0.15 1;0.5 0.35 0.15 1;0.5 0.35 0.15 1;0.5 0.35 0.15 1" additive="replace"
    fill="freeze"></animate>
</svg>