<svg width="24" height="24" viewBox="0 0 24 24" fill="none" xmlns="http://www.w3.org/2000/svg">
<path d="M22.6064 4.22189C23.3874 3.44085 23.3874 2.17451 22.6064 1.39347C21.8253 0.612418 20.559 0.612418 19.7779 1.39347L11.9998 9.17164L4.22158 1.39346C3.44053 0.612416 2.1742 0.612416 1.39316 1.39346C0.612108 2.17451 0.612106 3.44084 1.39316 4.22189L9.17133 12.0001L1.39315 19.7782C0.612106 20.5593 0.612106 21.8256 1.39315 22.6067C2.1742 23.3877 3.44053 23.3877 4.22158 22.6067L11.9998 14.8285L19.7779 22.6067C20.559 23.3877 21.8253 23.3877 22.6064 22.6067C23.3874 21.8256 23.3874 20.5593 22.6064 19.7782L14.8282 12.0001L22.6064 4.22189Z" fill="white"/>
</svg>
