<svg width="90" height="51" viewBox="0 0 90 51" fill="none" xmlns="http://www.w3.org/2000/svg">
<g id="f1" clip-path="url(#clip0_3417_12397)">
<path id="Vector" d="M20.2792 10.0945C18.8872 10.0945 17.5659 10.3642 16.3154 10.9035C15.0885 11.4194 14.0149 12.1345 13.0948 13.049C12.1746 13.9635 11.4432 15.0421 10.9005 16.2849C10.3814 17.5042 10.1219 18.8056 10.1219 20.1891V30.2836H31.3068L41.4641 30.266V50.4375H31.3068V40.343H10.1219V50.4375H0V20.1891C0 17.3987 0.530872 14.7842 1.59261 12.3456C2.65435 9.8835 4.09359 7.73797 5.91034 5.909C7.75068 4.08002 9.89776 2.63794 12.3516 1.58277C14.8289 0.527589 17.4715 0 20.2792 0H69.7208C71.5847 0 73.3779 0.246208 75.1003 0.738624C76.8227 1.20759 78.4271 1.8876 79.9135 2.77864C81.4235 3.64623 82.792 4.7014 84.0189 5.94417C85.2694 7.16349 86.3311 8.52349 87.2041 10.0242C88.1007 11.5249 88.7849 13.1311 89.2568 14.8428C89.7523 16.5546 90 18.3366 90 20.1891C90 21.9243 89.7759 23.6125 89.3276 25.2539C88.9029 26.8953 88.2776 28.4546 87.4518 29.9319C86.6496 31.4091 85.6587 32.7691 84.479 34.0119C83.2993 35.2547 81.978 36.3333 80.5151 37.2478L86.1423 50.4375H75.348L70.9241 40.2726L58.2016 40.343V50.4375H48.0443V30.266L58.2016 30.2836H69.7208C71.1128 30.2836 72.4223 30.0257 73.6492 29.5098C74.8761 28.9705 75.9497 28.2436 76.8698 27.3291C77.79 26.4146 78.5096 25.3477 79.0287 24.1284C79.5714 22.8856 79.8427 21.5725 79.8427 20.1891C79.8427 18.8056 79.5714 17.5042 79.0287 16.2849C78.5096 15.0421 77.79 13.9635 76.8698 13.049C75.9497 12.1345 74.8761 11.4194 73.6492 10.9035C72.4223 10.3642 71.1128 10.0945 69.7208 10.0945H20.2792Z" fill="#C7C5D0"/>
<g id="Vector_2" opacity="0.7">
<path d="M26 20C26 22.2091 24.2091 24 22 24C19.7909 24 18 22.2091 18 20C18 17.7909 19.7909 16 22 16C24.2091 16 26 17.7909 26 20Z" fill="#A807DE"/>
<path d="M72 20C72 22.2091 70.2091 24 68 24C65.7909 24 64 22.2091 64 20C64 17.7909 65.7909 16 68 16C70.2091 16 72 17.7909 72 20Z" fill="#A807DE"/>
</g>
<path id="Ellipse 23" opacity="0.7" d="M50 23.4085C49.6548 22.4137 48.983 21.5478 48.0816 20.9353C47.1801 20.3228 46.0953 19.9953 44.9835 20.0001C43.8716 20.0048 42.7901 20.3415 41.8945 20.9617C40.999 21.5819 40.3356 22.4535 40 23.4512L41.8416 24C42.0537 23.3693 42.4731 22.8182 43.0393 22.4261C43.6055 22.034 44.2893 21.8211 44.9922 21.8181C45.6952 21.8151 46.381 22.0221 46.9509 22.4094C47.5209 22.7966 47.9455 23.3441 48.1638 23.973L50 23.4085Z" fill="#E94113"/>
</g>
<defs>
<clipPath id="clip0_3417_12397">
<rect width="90" height="51" fill="white"/>
</clipPath>
</defs>
</svg>
