<svg width="16" height="16" viewBox="0 0 16 16" fill="none" xmlns="http://www.w3.org/2000/svg">
  <g id="&#208;&#152;&#208;&#186;&#208;&#190;&#208;&#189;&#208;&#186;&#208;&#184;/Info">
    <path id="icon" fill-rule="evenodd" clip-rule="evenodd"
      d="M8 0.888885C4.07264 0.888885 0.888885 4.07264 0.888885 8C0.888885 11.9274 4.07264 15.1111 8 15.1111C11.9274 15.1111 15.1111 11.9274 15.1111 8C15.1111 4.07264 11.9274 0.888885 8 0.888885ZM8.70718 11.9507V6.28528H7.29764V11.9507H8.70718ZM7.42445 4.26415C7.28138 4.40727 7.20985 4.58879 7.20985 4.80871C7.20985 5.02862 7.28138 5.21014 7.42445 5.35326C7.56752 5.49638 7.75936 5.56794 7.99997 5.56794C8.23733 5.56794 8.42755 5.49638 8.57062 5.35326C8.71694 5.21014 8.7901 5.02862 8.7901 4.80871C8.7901 4.58879 8.71694 4.40727 8.57062 4.26415C8.42755 4.12104 8.23733 4.04948 7.99997 4.04948C7.75936 4.04948 7.56752 4.12104 7.42445 4.26415Z"
      fill="#232451" />
  </g>
</svg>