<svg width="50" height="38" viewBox="0 0 50 38" fill="none" xmlns="http://www.w3.org/2000/svg">
<path fill-rule="evenodd" clip-rule="evenodd" d="M44.3246 4.46081C45.4813 6.38356 46.5579 8.35449 47.5513 10.3685L47.5591 10.3391C48.0667 11.3865 49.6291 10.4692 49.1179 9.43358C47.7182 6.60973 46.1548 3.87141 44.4364 1.23167C44.2936 0.992235 44.0499 0.831589 43.7743 0.795174C43.4985 0.759163 43.2212 0.851633 43.0211 1.04577C40.5204 3.80811 37.7822 6.34351 34.8381 8.62222C33.9173 9.32425 35.1936 10.6089 36.1013 9.90945C38.3491 8.16694 40.4774 6.27566 42.4723 4.24844C43.774 11.8034 41.7845 19.8471 36.5848 25.6196C34.0044 28.491 29.5824 30.8917 25.5168 31.0552C27.3412 28.2792 27.9486 24.868 27.1856 21.6288C26.4593 18.6627 24.1022 15.0159 20.6445 15.2694C17.6227 15.4707 15.6832 18.5841 15.1918 21.2988C14.887 22.9731 15.033 24.6978 15.6153 26.2937C16.1976 27.8897 17.1945 29.2994 18.5029 30.3758C19.6116 31.287 20.7943 31.9295 22.0164 32.3392C16.3549 37.3728 7.88459 35.5445 2.19531 31.3177L2.19492 31.3181C1.26279 30.6252 0.36459 32.1945 1.28044 32.8771C7.91223 37.8109 18.1542 39.2938 24.1329 32.8189C29.1191 33.4412 34.4147 30.7172 37.8478 26.9075C43.3408 20.8255 45.5272 12.4626 44.3246 4.46081ZM23.3826 30.9182C20.9281 30.4784 18.7754 29.0107 17.4859 26.0637C16.4903 23.8298 16.6341 21.247 17.8715 19.1325L17.8716 19.132C19.738 16.1994 23.2477 17.2582 24.7038 20.0266C26.5229 23.4873 25.8114 27.9323 23.3826 30.9182Z" fill="#D2D2D2"/>
</svg>
