<svg width="100" height="100" viewBox="0 0 100 100" fill="none" xmlns="http://www.w3.org/2000/svg">
<rect x="1.26904" y="1.26953" width="97.4615" height="97.4615" fill="white" stroke="black"/>
<path d="M29.4457 38.4606C28.2883 38.4606 27.1897 38.6853 26.1499 39.1349C25.1298 39.5649 24.2372 40.1611 23.4722 40.9234C22.7071 41.6857 22.0989 42.5848 21.6477 43.6208C21.2161 44.6372 21.0004 45.722 21.0004 46.8752V55.2899H38.6146L47.06 55.2752V72.0898H38.6146V63.6752H21.0004V72.0898H12.5845V46.8752C12.5845 44.5492 13.0259 42.3698 13.9087 40.337C14.7914 38.2846 15.9881 36.4962 17.4986 34.9715C19.0288 33.4469 20.814 32.2448 22.8542 31.3653C24.914 30.4857 27.1112 30.0459 29.4457 30.0459H70.554C72.1038 30.0459 73.5948 30.2511 75.0268 30.6616C76.4589 31.0525 77.7929 31.6194 79.0288 32.3621C80.2843 33.0853 81.4221 33.9649 82.4422 35.0009C83.482 36.0173 84.3647 37.151 85.0906 38.4019C85.836 39.6529 86.405 40.9918 86.7973 42.4187C87.2093 43.8455 87.4152 45.331 87.4152 46.8752C87.4152 48.3216 87.2289 49.729 86.8562 51.0972C86.503 52.4654 85.9832 53.7652 85.2966 54.9967C84.6296 56.2281 83.8056 57.3618 82.8248 58.3977C81.8439 59.4337 80.7453 60.3328 79.529 61.0951L84.2078 72.0898H75.2328L71.5545 63.6165L60.9763 63.6752V72.0898H52.531V55.2752L60.9763 55.2899H70.554C71.7115 55.2899 72.8002 55.0748 73.8203 54.6448C74.8405 54.1953 75.7331 53.5893 76.4981 52.827C77.2632 52.0647 77.8615 51.1754 78.2931 50.159C78.7443 49.123 78.9699 48.0284 78.9699 46.8752C78.9699 45.722 78.7443 44.6372 78.2931 43.6208C77.8615 42.5848 77.2632 41.6857 76.4981 40.9234C75.7331 40.1611 74.8405 39.5649 73.8203 39.1349C72.8002 38.6853 71.7115 38.4606 70.554 38.4606H29.4457Z" fill="#1D1C1E"/>
<path d="M25.8457 46.8812C25.8457 44.7312 27.5969 42.9883 29.757 42.9883H70.435C72.5952 42.9883 74.3464 44.7312 74.3464 46.8812C74.3464 49.0313 72.5952 50.7742 70.435 50.7742H25.8457V46.8812Z" fill="url(#paint0_linear_351_2704)"/>
<defs>
<linearGradient id="paint0_linear_351_2704" x1="74.3464" y1="43.1116" x2="32.8362" y2="64.4312" gradientUnits="userSpaceOnUse">
<stop stop-color="#E94309"/>
<stop offset="0.480328" stop-color="#E92A6E"/>
<stop offset="1" stop-color="#A204E8"/>
</linearGradient>
</defs>
</svg>
