<svg width="24" height="24" viewBox="0 0 24 24" fill="none" xmlns="http://www.w3.org/2000/svg">
<g clip-path="url(#clip0_3488_315)">
<path fill-rule="evenodd" clip-rule="evenodd" d="M21.984 11.239V6.61658C21.984 6.26538 21.693 5.90272 21.1547 5.90272C20.7971 5.90272 20.5179 6.07744 20.377 6.29272L19.5403 7.57052L18.7037 6.29272C18.5643 6.07988 18.2813 5.90272 17.9207 5.90272C17.62 5.90272 17.4099 6.03352 17.297 6.19088L16.4612 7.35555L15.6568 6.16899C15.607 6.0955 15.3976 5.90272 14.8229 5.90272C14.4507 5.90272 14.2391 5.99859 14.1438 6.07102L12.5305 7.29711L12.5493 2.69919L12.5493 2.6977C12.5484 2.36928 12.2658 2 11.7095 2C11.1634 2 10.8802 2.36503 10.8802 2.69919V12.5971L9.23687 11.2163C8.77475 10.828 8.02106 10.2718 7.21257 9.94996C6.39505 9.62452 5.72726 9.61212 5.21068 9.95327L5.20609 9.9563C5.18995 9.96683 5.18063 9.97673 5.17568 9.98318C5.19879 10.189 5.33837 10.7279 6.32348 11.3635L6.4464 11.4428L9.52002 15.0387L10.2027 17.2059L10.2125 17.2939L10.2126 17.2927C10.2146 17.2921 10.243 17.3849 10.4096 17.5735C10.5862 17.7734 10.838 17.9908 11.1264 18.205C11.7001 18.6311 12.2978 18.9564 12.4077 19.0154L12.4448 19.0353L12.48 19.0582C13.3194 19.6041 13.6327 20.6077 13.77 21.3095C13.8918 21.9321 13.9187 22.5565 13.9183 23H21.5232C21.5169 22.446 21.5318 21.7629 21.5575 21.4463L21.5581 21.4382L21.5683 21.3243L21.5685 21.3223C21.6201 20.7202 21.667 20.1977 21.8122 19.6432L21.8125 19.6419C21.909 19.2755 22.0416 18.9201 22.2248 18.5281L22.2254 18.5269C22.3373 18.2883 22.4342 18.0614 22.5046 17.8902C22.562 17.7503 22.5985 17.6556 22.6099 17.6258C22.6533 17.4867 22.9136 16.6126 22.983 15.4535C23.0579 14.2038 22.9048 12.7297 22.1332 11.4806L21.984 11.239ZM23.5554 17.9525C23.5449 17.9819 23.3719 18.4373 23.1308 18.9515C22.9683 19.2991 22.8582 19.5978 22.7796 19.8965C22.659 20.3568 22.6171 20.7975 22.5647 21.4096L22.5542 21.5271C22.528 21.8504 22.5123 22.6877 22.528 23.2459C22.5333 23.4467 22.4546 23.6327 22.3026 23.7797C22.1558 23.9217 21.9567 24 21.7418 24H13.7013C13.4916 24 13.2924 23.9217 13.1404 23.7797C12.9937 23.6327 12.9098 23.4467 12.915 23.2459C12.936 22.4428 12.8836 20.5135 11.9349 19.8965C11.6885 19.7643 9.34032 18.4863 9.21975 17.4139L8.62745 15.5335L5.7813 12.2038C4.54431 11.4056 4.22458 10.5927 4.17739 10.0492C4.14594 9.69172 4.32942 9.33427 4.6596 9.11881C6.01885 8.22117 7.70114 8.93867 8.88018 9.70708C9.28339 9.96986 9.62774 10.2386 9.88018 10.4507V2.69919C9.88018 1.74431 10.6822 1 11.7095 1C12.7421 1 13.5493 1.74431 13.5493 2.69919L13.5388 5.27485C13.7917 5.08266 14.1322 4.95595 14.5402 4.91615C14.6312 4.90728 14.7255 4.90272 14.8229 4.90272C15.1444 4.90272 15.4334 4.94812 15.683 5.03264C16.0357 5.15211 16.3096 5.34975 16.4845 5.60785C16.679 5.33683 16.9565 5.1278 17.2868 5.00998C17.4818 4.94048 17.6951 4.90272 17.9207 4.90272C18.2286 4.90272 18.5196 4.97066 18.7768 5.09108C19.0931 5.23921 19.3582 5.46675 19.5403 5.74495C19.7229 5.4661 19.9872 5.23814 20.3031 5.09003C20.5585 4.97027 20.8477 4.90272 21.1547 4.90272C22.1821 4.90272 22.984 5.65191 22.984 6.61658V10.9551C24.8291 13.9421 23.6078 17.7909 23.5554 17.9525Z" fill="#232451"/>
<path d="M4.49737 0.558755L9.3913 0L8.80825 4.68999L7.54055 3.47512L6.26087 4.68999L4.48539 2.98849L5.76507 1.77362L4.49737 0.558755Z" fill="#232451"/>
<path d="M4.89394 8.44124L0 9L0.583054 4.31001L1.85075 5.52488L3.11845 4.25023L4.89394 5.95172L3.62624 7.22638L4.89394 8.44124Z" fill="#232451"/>
</g>
<defs>
<clipPath id="clip0_3488_315">
<rect width="24" height="24" fill="white"/>
</clipPath>
</defs>
</svg>
