<svg width="24" height="24" viewBox="0 0 24 24" fill="none" xmlns="http://www.w3.org/2000/svg">
<g clip-path="url(#clip0_3488_318)">
<path d="M3.81151 0L0 3L3.81151 6V4.23558H8V1.76442H3.81151V0Z" fill="#232451"/>
<path d="M20.1885 0L24 3L20.1885 6V4.23558H17.3163V1.76442H20.1885V0Z" fill="#232451"/>
<path fill-rule="evenodd" clip-rule="evenodd" d="M21.9875 22.5294C21.9733 22.6968 21.964 22.8539 21.9595 23C21.9512 23.2772 21.9605 23.515 21.9875 23.7089L22.0289 24H12.9486L12.9279 23.7702C12.9277 23.7692 12.927 23.7638 12.9258 23.7543C12.902 23.562 12.6714 21.7002 11.56 20.9413C11.3277 20.8136 9.12856 19.5574 9.00984 18.5004L8.44718 16.6162L8.1013 15.3804C7.7451 14.0987 8.35424 12.7557 9.52089 12.1787V3.19149C9.52089 2.17532 10.1868 1.44 11.1057 1.44C11.213 1.44 11.3183 1.44883 11.4208 1.46571C11.653 1.50394 11.8706 1.58351 12.0639 1.69532C12.0773 1.70311 12.0907 1.71105 12.1039 1.71915C12.22 1.79027 12.3268 1.87323 12.422 1.96595V1.69532C12.4003 1.40496 12.465 1.11461 12.6092 0.856045C12.6703 0.746285 12.7458 0.642255 12.835 0.546387C13.1602 0.199125 13.6352 0 14.1307 0C15.0909 0 15.8446 0.745512 15.8446 1.69532V7.33787C16.1095 7.07984 16.458 6.89821 16.8446 6.83317C16.9476 6.81584 17.0533 6.80679 17.1609 6.80679C17.6664 6.80679 18.1223 7.00969 18.4444 7.33397C18.6912 7.58256 18.8594 7.90248 18.9109 8.25701C19.1484 8.01431 19.4683 7.83845 19.826 7.76671C19.9425 7.74336 20.063 7.73104 20.186 7.73104C21.1667 7.73104 21.9617 8.49192 21.9617 9.42636V11.9643C22.034 11.9614 22.1046 11.9614 22.1735 11.9643C22.7248 11.9869 23.1674 12.1912 23.4794 12.577C24.7751 14.1702 23.2523 18.383 23.1852 18.5566C23.1852 18.5617 23.0148 19.0162 22.7877 19.5268C22.3386 20.543 22.0701 21.5489 21.9875 22.5294ZM22.7036 13.208L22.7019 13.2059C22.5886 13.0658 22.404 12.9477 22.001 12.9635L20.9617 13.0043V9.42636C20.9617 9.08668 20.6579 8.73104 20.186 8.73104C19.9548 8.73104 19.7527 8.82655 19.6255 8.9565L18.2119 10.4008L17.9213 8.40081C17.878 8.10329 17.586 7.80679 17.1609 7.80679C16.9169 7.80679 16.6957 7.90479 16.5423 8.05424L14.8446 9.70775V1.69532C14.8446 1.30801 14.5489 1 14.1307 1C13.8968 1 13.6918 1.09513 13.566 1.22882C13.4519 1.35197 13.4097 1.49308 13.4192 1.62065L13.422 1.65793V4.33558L13.35 4.26541V9H12.35V3.2916L11.7244 2.68237C11.5787 2.54047 11.3584 2.44 11.1057 2.44C10.8306 2.44 10.5209 2.63143 10.5209 3.19149V12.7997L9.96423 13.0751C9.22873 13.4388 8.83724 14.2924 9.06455 15.1118L9.40784 16.3383L9.99362 18.3L10.0033 18.3862C10.0031 18.3844 10.003 18.3835 10.0032 18.3834C10.0034 18.3834 10.004 18.3849 10.0052 18.3879C10.0136 18.4084 10.0509 18.5 10.19 18.6649C10.3542 18.8595 10.5881 19.0713 10.8566 19.2803C11.3915 19.6967 11.9484 20.0137 12.0416 20.0649L12.0839 20.0882L12.1238 20.1154C12.987 20.7048 13.4152 21.6714 13.6311 22.3393C13.7089 22.5801 13.7666 22.8062 13.8091 23H20.9591C20.9638 22.8216 20.9749 22.636 20.9911 22.4454C21.0841 21.3408 21.3849 20.2269 21.873 19.1226L21.874 19.1204C21.9809 18.88 22.0752 18.6512 22.1427 18.4819C22.1585 18.4422 22.1727 18.4061 22.1852 18.3741V18.37L22.2524 18.1961C22.2538 18.1924 22.2604 18.1747 22.2717 18.1428C22.2844 18.1073 22.3017 18.0577 22.3227 17.9954C22.3648 17.8708 22.4209 17.6975 22.4831 17.4883C22.6079 17.0679 22.7538 16.5132 22.8589 15.9236C22.9651 15.3279 23.023 14.7328 22.9914 14.2207C22.9587 13.6911 22.8377 13.3729 22.7036 13.208Z" fill="#232451"/>
</g>
<defs>
<clipPath id="clip0_3488_318">
<rect width="24" height="24" fill="white"/>
</clipPath>
</defs>
</svg>
