<svg width="23" height="24" viewBox="0 0 23 24" fill="none" xmlns="http://www.w3.org/2000/svg">
<path d="M3.81151 0L0 3L3.81151 6V4.23558H8V1.76442H3.81151V0Z" fill="#232451"/>
<path d="M18.6885 0L22.5 3L18.6885 6V4.23558H14.5V1.76442H18.6885V0Z" fill="#232451"/>
<path fill-rule="evenodd" clip-rule="evenodd" d="M11.1192 20.6451C11.255 20.7501 11.3638 20.83 11.4322 20.8803C11.4836 20.9181 11.5122 20.9391 11.5122 20.9413C12.6101 21.6996 12.8362 23.5593 12.8599 23.7539C12.8611 23.7637 12.862 23.7702 12.862 23.7702L12.8827 24H21.8557L21.8143 23.709C21.7871 23.5176 21.7778 23.2798 21.7863 23C21.7908 22.8543 21.8001 22.6972 21.8143 22.5294C21.8918 21.5489 22.1608 20.543 22.6055 19.5268C22.6418 19.44 22.6831 19.2919 22.7297 19.0775C23.1951 16.9992 23.0555 14.8085 22.3418 12.7404L22.2746 12.5464V9.63066C22.2746 8.83915 21.5299 8.2213 20.5782 8.2213C20.4461 8.2213 20.3214 8.2303 20.2039 8.24709C19.947 8.28382 19.7247 8.35777 19.5352 8.45617C19.4146 8.51885 19.3073 8.59145 19.2129 8.67066V8.45617C19.2129 8.15561 19.1062 7.8801 18.9218 7.65394C18.6206 7.28454 18.112 7.04683 17.5218 7.04683C17.2139 7.04683 16.9454 7.09524 16.7154 7.17673C16.3619 7.30194 16.0991 7.50526 15.9237 7.73107C15.7617 7.49972 15.522 7.31311 15.2319 7.19357C15.0033 7.09939 14.7433 7.04683 14.4653 7.04683C14.3366 7.04683 14.215 7.05514 14.1003 7.07072C13.6752 7.12844 13.3443 7.28601 13.0999 7.49109L13.1051 2.01703C13.1051 1.103 12.3035 0 11.3157 0C10.3227 0 9.52626 1.103 9.52626 2.01703V12.4238C8.31607 13.006 7.75754 14.1498 8.09886 15.3805L8.43504 16.6162C8.916 18.2502 9.86758 19.68 11.1192 20.6451ZM9.39717 16.3434L9.06379 15.118L9.06249 15.1132C8.86201 14.3904 9.1459 13.7165 9.95975 13.325L10.5263 13.0525V2.01703C10.5263 1.82696 10.6208 1.54245 10.8185 1.30387C11.0148 1.06711 11.2032 1 11.3157 1C11.4247 1 11.6135 1.06624 11.8115 1.30462C12.0104 1.54413 12.105 1.82831 12.1051 2.01669L12.0979 9.6375L13.7428 8.25708C13.856 8.16208 14.0721 8.04683 14.4653 8.04683C14.8224 8.04683 15.0303 8.19857 15.1045 8.30465L15.8819 9.41479L16.7134 8.34461C16.7983 8.23531 17.0238 8.04683 17.5218 8.04683C17.7844 8.04683 17.975 8.13205 18.0837 8.22267C18.1874 8.30915 18.2129 8.39131 18.2129 8.45617V10.8154L19.8557 9.43666C19.9742 9.33724 20.1925 9.2213 20.5782 9.2213C20.8411 9.2213 21.0339 9.30671 21.1444 9.39847C21.25 9.48614 21.2746 9.56827 21.2746 9.63066V12.7147L21.3965 13.0666C22.0522 14.967 22.177 16.9694 21.7539 18.8589L21.7525 18.8653C21.7318 18.9604 21.7142 19.0318 21.7 19.083C21.6902 19.1185 21.684 19.1371 21.6819 19.1431C21.2044 20.2385 20.9051 21.3464 20.8176 22.448C20.8016 22.6379 20.7906 22.8226 20.7859 23H13.7449C13.7032 22.8071 13.6467 22.5826 13.5705 22.3435C13.362 21.6883 12.9503 20.7417 12.1229 20.1483C12.1065 20.1353 12.0912 20.1239 12.0827 20.1175C12.0662 20.1052 12.0437 20.0887 12.0209 20.0719C12.0131 20.0662 12.0052 20.0604 11.9975 20.0547C11.9319 20.0065 11.8407 19.9389 11.7306 19.8539L11.7298 19.8532C10.6613 19.0293 9.8245 17.7882 9.39717 16.3434Z" fill="#232451"/>
</svg>
