<svg width="24" height="24" viewBox="0 0 24 24" fill="none" xmlns="http://www.w3.org/2000/svg">
<g id="Frame 81">
<path id="Vector (Stroke)" fill-rule="evenodd" clip-rule="evenodd" d="M10.0781 0.0559099C10.3602 0.0174506 11.1834 0 11.9844 0C12.7859 0 13.6122 0.0174874 13.9016 0.0557919L13.9028 0.0559542C15.7439 0.309545 17.4455 1.29187 18.5681 2.74519C19.2514 3.62885 19.6738 4.55714 19.9061 5.68184L20 6.13675V17.0894L19.9064 17.5623C19.5792 19.2237 18.9289 20.4702 17.7745 21.6271C17.0627 22.3435 16.4015 22.8083 15.508 23.2273C14.3353 23.7738 13.3003 24 12 24C10.6996 24 9.66852 23.7738 8.49223 23.2274C7.59768 22.8118 6.93688 22.3431 6.2255 21.6271C5.06337 20.4628 4.42071 19.235 4.09352 17.5619L4 17.0894V6.13675L4.09395 5.68184C4.33017 4.53804 4.74092 3.64001 5.43191 2.74519C6.54272 1.30699 8.25177 0.317482 10.0765 0.0561212L10.0781 0.0559099ZM11.4191 2.95132L11.4083 4.89481L11.4059 4.8955C11.1615 4.96627 10.9141 5.10786 10.703 5.27883C10.492 5.44986 10.3035 5.66152 10.1874 5.88417C10.0885 6.07575 10.0245 6.23948 9.98846 6.46503C9.95387 6.6815 9.94542 6.95162 9.94542 7.35471V7.88798H5.12671V7.29808C5.12671 6.12213 5.22208 5.56158 5.52862 4.80493C5.71743 4.34054 5.80761 4.17238 6.12331 3.70825C6.76746 2.76341 7.52759 2.12496 8.59847 1.63196C9.39719 1.26522 10.219 1.08612 11.215 1.07511L11.2165 1.07509L11.4261 1.07147L11.4191 2.95132ZM11.3352 6.20254C11.6136 5.9023 12.0304 5.8226 12.3924 5.98542C12.5874 6.07545 12.7826 6.2554 12.8849 6.43802L12.8857 6.43929C12.8911 6.44799 12.9088 6.47607 12.9178 6.74385C12.9269 7.0165 12.9279 7.5 12.9279 8.4043C12.9279 9.33727 12.9269 9.82014 12.9168 10.0885C12.9074 10.34 12.8902 10.3722 12.8758 10.3993L12.8732 10.4042L12.8717 10.4072C12.8374 10.4762 12.7688 10.5653 12.6801 10.6507C12.5917 10.7359 12.4991 10.8023 12.4282 10.836C12.3713 10.863 12.2484 10.8907 12.0971 10.9009C11.9477 10.9109 11.812 10.9011 11.7353 10.8793L11.7306 10.8781C11.5516 10.8313 11.3196 10.6512 11.2035 10.4515L11.1111 10.2927V8.4043L11.111 8.03834C11.1106 7.1952 11.1103 6.79057 11.1374 6.56266C11.1519 6.44095 11.172 6.39494 11.1899 6.36599C11.2087 6.33567 11.2295 6.31385 11.2746 6.26662C11.291 6.24941 11.3113 6.22814 11.3352 6.20254ZM18.8765 8.95903L18.85 17.1583L18.75 17.5886C18.4352 18.9441 17.8543 19.98 16.8905 20.9245C15.9486 21.8433 14.8886 22.426 13.5955 22.7292C13.5022 22.7511 13.4077 22.7715 13.312 22.7905C12.8605 22.8809 12.7518 22.8918 12 22.8918C11.3343 22.8918 11.1731 22.8833 10.8315 22.8186C10.7873 22.8102 10.7401 22.8009 10.6884 22.7906C9.36753 22.5304 8.21579 21.9559 7.26437 21.0821C6.22617 20.1315 5.58399 19.0183 5.24995 17.5884L5.15002 17.1583L5.1235 8.95903L7.52337 8.96593L9.93199 8.97633L9.94937 9.5793C9.96468 10.2688 9.97858 10.451 10.0687 10.677C10.2772 11.2264 10.6994 11.6522 11.2513 11.8753L11.2525 11.8758C11.3678 11.9216 11.4632 11.9543 11.5821 11.9728C11.6953 11.9904 11.8221 11.9939 11.9986 11.9939C12.3069 11.9977 12.5004 11.979 12.6843 11.9181L12.6861 11.9175C13.2464 11.7267 13.7139 11.2931 13.9478 10.752C14.0031 10.6245 14.0373 10.5331 14.0571 10.3653C14.075 10.2133 14.0819 9.99121 14.0935 9.59968L14.0935 9.59844L14.1081 8.97632L16.4958 8.96593L18.8765 8.95903Z" fill="#232451"/>
</g>
</svg>
