<svg id="materialIconAnimated" viewBox="0 0 28 28" xmlns="http://www.w3.org/2000/svg" xmlns:xlink="http://www.w3.org/1999/xlink"><g transform="matrix(1,0,0,1,0,0)"><g id="5527:3375" opacity="1" style="mix-blend-mode:normal"><g><defs><clipPath id="5527:3375_clipPath" x="-50%" y="-50%" width="200%" height="200%"><path d="M0,0h28v0v28v0h-28v0v-28z" fill="white" clip-rule="nonzero"></path></clipPath></defs><g clip-path="url(#5527:3375_clipPath)"><g transform="matrix(1,0,0,1,3,3)"><g id="5527:3376" opacity="1" style="mix-blend-mode:normal"><g><g><path id="5527:3376_fill_path" d="M10.26667,4.47333v-2.27333c0,-0.58357 -0.23178,-1.14304 -0.64429,-1.55571c-0.41267,-0.4125 -0.97215,-0.64429 -1.55571,-0.64429h-5.86667c-0.58357,0 -1.14304,0.23178 -1.55571,0.64429c-0.4125,0.41267 -0.64429,0.97215 -0.64429,1.55571v17.6c0,0.58357 0.23178,1.14303 0.64429,1.55571c0.41267,0.4125 0.97215,0.64429 1.55571,0.64429h8.00104v-1.46671l0.06565,-2.36149v-11.41067zM2.20017,20.53329h2.93333h2.93333c0.19446,0 0.38107,-0.07726 0.51857,-0.21476c0.1375,-0.1375 0.21476,-0.32411 0.21476,-0.51857v-17.6c0,-0.19446 -0.07726,-0.38107 -0.21476,-0.51857c-0.1375,-0.1375 -0.32411,-0.21476 -0.51857,-0.21476h-5.86667c-0.19446,0 -0.38107,0.07726 -0.51857,0.21476c-0.1375,0.1375 -0.21476,0.32411 -0.21476,0.51857v17.6c0,0.19446 0.07726,0.38107 0.21476,0.51857c0.1375,0.1375 0.32411,0.21476 0.51857,0.21476zM6.17064,17.90377c0.275,-0.27515 0.42952,-0.64822 0.42952,-1.03714c0,-0.38892 -0.15452,-0.76198 -0.42952,-1.03714c-0.27515,-0.275 -0.64822,-0.42952 -1.03714,-0.42952c-0.38892,0 -0.76198,0.15452 -1.03714,0.42952c-0.275,0.27515 -0.42952,0.64822 -0.42952,1.03714c0,0.38892 0.15452,0.76198 0.42952,1.03714c0.27515,0.275 0.64823,0.42953 1.03714,0.42953c0.38892,0 0.76198,-0.15453 1.03714,-0.42953z" fill-rule="evenodd" fill="rgb(35, 36, 81)" fill-opacity="1" style="mix-blend-mode:NORMAL"></path></g></g></g></g><g transform="matrix(1,0,0,1,14.98,4.64)"><g id="5527:3377" opacity="1" style="mix-blend-mode:normal"><g><g><path id="5527:3377_fill_path" d="M5.61754,10.09751l2.27333,-2.71333c0.37501,-0.44704 0.55704,-1.0247 0.50596,-1.60596c-0.05762,-0.57162 -0.33654,-1.09803 -0.77737,-1.46667l-4.51733,-3.79875c-0.44817,-0.37485 -1.027,-0.5562 -1.60893,-0.50399c-0.58193,0.05221 -1.11915,0.33393 -1.49319,0.78278v2.28621l1.12954,-1.34784c0.12571,-0.14814 0.30512,-0.24046 0.49875,-0.25667c0.19365,-0.01702 0.38631,0.04371 0.53525,0.16876l4.49512,3.76929c0.14814,0.12555 0.24063,0.30495 0.25683,0.49858c0.01686,0.19381 -0.04371,0.38631 -0.16876,0.53542l-6.72936,8.02391v2.284l4.3535,-5.18909z" fill-rule="nonzero" fill="rgb(35, 36, 81)" fill-opacity="1" style="mix-blend-mode:NORMAL"></path></g></g></g></g><g transform="matrix(1,0,0,1,15,14.7334)"><g id="5527:3378" opacity="1" style="mix-blend-mode:normal"><g><g><path id="5527:3378_fill_path" d="M7.8,10.26671c0.58357,0 1.14304,-0.23179 1.55571,-0.64429c0.4125,-0.41267 0.64429,-0.97215 0.64429,-1.55571v-5.86667c0,-0.58357 -0.23179,-1.14304 -0.64429,-1.55571c-0.41267,-0.4125 -0.89865,-0.64433 -1.48221,-0.64433l-1.29238,1.46667h1.21905c0.19446,0 0.38107,0.07726 0.51857,0.21476c0.1375,0.1375 0.21476,0.32411 0.21476,0.51857v5.86666c0,0.19446 -0.07726,0.38107 -0.21476,0.51857c-0.1375,0.1375 -0.32411,0.21476 -0.51857,0.21476h-7.80017v1.46671z" fill-rule="nonzero" fill="rgb(35, 36, 81)" fill-opacity="1" style="mix-blend-mode:NORMAL"></path></g></g></g></g></g></g></g></g><animateTransform href="#5527:3376" attributeName="transform" type="translate" values="0 0;13 1;22 12;22 12;13 1;0 0" dur="0.4s" repeatCount="1" calcMode="spline" keyTimes="0;0.13;0.25;0.77;0.9;1" keySplines="0.5 0 1 1;0.5 0 1 1;0.5 0.35 0.15 1;0 0 0.15 1;0 0 0.15 1" additive="sum" fill="freeze"></animateTransform><animateTransform href="#5527:3376" attributeName="transform" type="rotate" values="0 0 0;40 0 0;90 0 0;90 0 0;40 0 0;0 0 0" dur="0.4s" repeatCount="1" calcMode="spline" keyTimes="0;0.13;0.25;0.77;0.9;1" keySplines="0.5 0 1 1;0.5 0 1 1;0.5 0.35 0.15 1;0 0 0.15 1;0 0 0.15 1" additive="sum" fill="freeze"></animateTransform><animateTransform href="#5527:3377" attributeName="transform" type="translate" values="0 0;0 0;7.999999999999998 10;7.9976 10.0043;-0.0023999999999997357 0.0042999999999997485" dur="0.4s" repeatCount="1" calcMode="spline" keyTimes="0;0.13;0.25;0.9;1" keySplines="0.5 0 0.15 1;0.5 0 1 1;0.5 0.35 0.15 1;0 0 0.15 1" additive="sum" fill="freeze"></animateTransform><animateTransform href="#5527:3377" attributeName="transform" type="rotate" values="0 0 0;0 0 0;50 0 0;50 0 0;0 0 0" dur="0.4s" repeatCount="1" calcMode="spline" keyTimes="0;0.13;0.25;0.9;1" keySplines="0.5 0 0.15 1;0.5 0 1 1;0.5 0.35 0.15 1;0 0 0.15 1" additive="sum" fill="freeze"></animateTransform><animate href="#5527:3377" attributeName="opacity" values="1;1;0;0;1;1" dur="0.4s" repeatCount="1" calcMode="spline" keyTimes="0;0.22;0.25;0.8;0.83;1" keySplines="0.5 0.35 0.15 1;0.5 0.35 0.15 1;0.5 0.35 0.15 1;0.5 0.35 0.15 1;0.5 0.35 0.15 1" additive="replace" fill="freeze"></animate><animate href="#5527:3378" attributeName="opacity" values="1;1;0;0;1;1" dur="0.4s" repeatCount="1" calcMode="spline" keyTimes="0;0.22;0.25;0.8;0.83;1" keySplines="0.5 0.35 0.15 1;0.5 0.35 0.15 1;0.5 0.35 0.15 1;0.5 0.35 0.15 1;0.5 0.35 0.15 1" additive="replace" fill="freeze"></animate></svg>