<svg width="42" height="54" viewBox="0 0 42 54" fill="none" xmlns="http://www.w3.org/2000/svg">
<path d="M5.60426 29.5802C6.8625 29.1384 7.24247 29.0034 7.24247 27.0395C7.24247 26.3399 5.67277 25.2597 4.55156 24.7197C4.53288 24.7136 4.51419 24.7013 4.50173 24.689C4.15914 24.4619 3.20611 23.9464 2.42749 23.9464C2.30914 23.9464 2.19702 23.9587 2.09113 23.9832C1.79837 24.0569 1.58035 24.2349 1.42463 24.5233C0.565035 26.1373 1.00106 27.2482 1.6987 27.7453L1.71739 27.7575C2.86975 28.6781 4.83809 29.8441 5.61048 29.5741L5.60426 29.5802Z" fill="#FEBA8A"/>
<path d="M5.03742 11.5557C4.74466 11.3593 4.10931 10.9604 3.40544 10.6106C1.78591 9.81277 1.20662 9.97847 1.03221 10.0828C0.508975 10.4081 0.153925 10.9052 0.041804 11.4882C-0.082775 12.1019 0.0729481 12.7463 0.484059 13.317C0.751904 13.6914 1.47446 14.4033 3.41167 15.6982C4.03456 16.1155 4.62008 16.4838 5.04365 16.7415V11.5557H5.03742Z" fill="#FEBA8A"/>
<path d="M6.68809 33.8578C7.0556 33.3975 7.23001 32.8145 7.24247 32.3481V32.2744C7.24247 32.078 7.20509 31.9062 7.14903 31.7712C6.78153 30.9795 5.19937 30.7217 4.04702 30.5315C3.89752 30.5069 3.75426 30.4824 3.61099 30.4578C2.67665 30.2983 2.35274 30.9549 2.30291 31.0715C2.01015 32.2621 2.02884 33.0231 2.3652 33.5386C2.68911 34.0419 3.38675 34.3794 4.48304 34.5881C5.64786 34.809 6.32058 34.3058 6.68809 33.8516V33.8578Z" fill="#FEBA8A"/>
<path d="M3.76049 23.1486C4.66368 23.9035 5.41116 24.1121 5.98422 23.7807C6.83759 23.2836 7.14281 21.7494 7.0556 21.3259C6.99331 21.0068 6.3019 19.9082 4.72597 18.3249V18.3126C4.44567 18.018 4.14668 17.8769 3.81655 17.8769C3.2248 17.8769 2.65796 18.331 2.4088 18.5949C2.30914 18.7054 1.81083 19.2945 1.86689 20.2151C1.92918 21.1725 2.56453 22.1605 3.75426 23.1486H3.76049Z" fill="#FEBA8A"/>
<path d="M38.4433 44.9106C38.1194 43.8305 37.7892 42.7197 38.2626 40.6331C38.817 38.1905 37.6397 33.3361 37.0729 31.004C36.7303 29.5864 36.5746 28.6658 36.4625 27.9969C36.3254 27.1684 36.2445 26.7142 35.9517 26.0821C35.5032 25.1186 35.3413 22.3937 35.2104 19.6873C35.1855 19.1841 35.1668 18.7483 35.1482 18.4844C35.061 17.3368 34.6 16.6679 33.728 15.7657C32.6566 14.6549 31.8468 10.8622 31.7036 9.98461C31.6911 9.9171 31.6662 9.76981 31.3734 9.76367H31.361C30.7007 9.76367 29.6605 10.4878 29.4051 11.8564C28.969 14.1578 29.4362 17.7664 29.9221 19.3743C30.2958 20.6201 29.947 22.7436 29.6667 24.4497C29.5296 25.272 29.4113 25.9778 29.4113 26.3767V39.5284C29.4113 40.2587 29.1995 40.9399 28.832 41.5168C28.9254 41.8114 29.1746 42.4681 29.6605 43.1125C29.7975 43.2904 29.7601 43.5482 29.5795 43.6832C29.5047 43.7384 29.4175 43.763 29.3303 43.763C29.2057 43.763 29.0812 43.7078 29.0002 43.5973C28.6327 43.1125 28.3835 42.6276 28.2216 42.2471C27.5364 42.8915 26.6083 43.2904 25.5867 43.2904H13.677C14.2936 44.0883 15.4709 45.4568 16.8662 46.3099C18.9093 47.5618 21.0209 48.8997 22.4598 50.2805C23.6184 51.3914 24.1105 53.2202 24.2724 53.9873L42 53.9996C41.2338 52.1769 38.898 46.586 38.6052 45.4875C38.5554 45.2911 38.4993 45.1009 38.437 44.9045L38.4433 44.9106Z" fill="#FEBA8A"/>
<path d="M10.1016 28.2304H16.6136V21.8143H10.1016V28.2304ZM11.4039 23.0976H15.3112V26.9373H11.4039V23.0976Z" fill="#3D3D3D"/>
<path d="M14.0088 24.3807H12.7064V25.6641H14.0088V24.3807Z" fill="#3D3D3D"/>
<path d="M21.8233 26.9473H20.5206V28.2305H21.8233V26.9473Z" fill="#3D3D3D"/>
<path d="M24.4281 26.9473H23.1255V28.2305H24.4281V26.9473Z" fill="#3D3D3D"/>
<path d="M23.1256 23.0976H21.8233V21.8143H17.9159V28.2304H19.2184V24.3807H20.5206V25.6641H24.428V21.8143H23.1256V23.0976Z" fill="#3D3D3D"/>
<path d="M10.1016 20.5314H16.6136V14.1152H10.1016V20.5314ZM11.4039 15.3983H15.3112V19.248H11.4039V15.3983Z" fill="#3D3D3D"/>
<path d="M14.0088 16.6816H12.7064V17.9649H14.0088V16.6816Z" fill="#3D3D3D"/>
<path d="M17.9159 14.1152V20.5314H24.4281V14.1152H17.9159ZM23.1256 19.248H19.2184V15.3983H23.1256V19.248Z" fill="#3D3D3D"/>
<path d="M21.8233 16.6816H20.5206V17.9649H21.8233V16.6816Z" fill="#3D3D3D"/>
<path d="M7.24244 30.673V29.7034C6.98705 29.9059 6.66938 30.0593 6.29564 30.2005C6.64446 30.3232 6.96837 30.4766 7.24244 30.673Z" fill="#767676"/>
<path d="M6.06517 24.6403C6.18975 24.7201 6.31433 24.7999 6.43891 24.8919C6.75035 25.1129 7.0182 25.3276 7.24244 25.5363V23.6645C7.02443 23.9959 6.74412 24.2905 6.40776 24.4869C6.3081 24.5482 6.18975 24.5973 6.06517 24.6464V24.6403Z" fill="#767676"/>
<path d="M28.5953 39.5349V16.7726C28.396 15.1033 28.3337 13.1947 28.5953 11.7463V2.94579C28.5953 1.31947 27.2561 0 25.6054 0H8.86197C7.21129 0 5.87207 1.31947 5.87207 2.94579V18.3253C6.05894 18.5278 6.27072 18.761 6.49497 19.0188C6.81264 19.3931 7.0618 19.7061 7.24867 19.9639V2.94579C7.24867 2.06819 7.97746 1.35015 8.8682 1.35015H25.6116C26.5023 1.35015 27.2311 2.06819 27.2311 2.94579V39.5349C27.2311 40.4125 26.5023 41.1306 25.6116 41.1306H8.86197C7.97123 41.1306 7.24244 40.4125 7.24244 39.5349V34.4841C6.86247 34.9137 6.40153 35.2083 5.87207 35.3556V39.5349C5.87207 41.1613 7.21129 42.4807 8.86197 42.4807H25.6054C27.2561 42.4807 28.5953 41.1613 28.5953 39.5349Z" fill="#767676"/>
</svg>
