<svg width="24" height="24" viewBox="0 0 24 24" fill="none" xmlns="http://www.w3.org/2000/svg">
<g id="Frame 79">
<path id="Vector (Stroke)" fill-rule="evenodd" clip-rule="evenodd" d="M13.9219 0.0559099C13.6398 0.0174506 12.8166 0 12.0156 0C11.2141 0 10.3878 0.0174874 10.0984 0.0557919L10.0972 0.0559542C8.25615 0.309545 6.55448 1.29187 5.43192 2.74519C4.74858 3.62885 4.32622 4.55714 4.09395 5.68184L4 6.13675V17.0894L4.09361 17.5623C4.42079 19.2237 5.07109 20.4702 6.2255 21.6271C6.93727 22.3435 7.59846 22.8083 8.492 23.2273C9.6647 23.7738 10.6997 24 12 24C13.3004 24 14.3315 23.7738 15.5078 23.2274C16.4023 22.8118 17.0631 22.3431 17.7745 21.6271C18.9366 20.4628 19.5793 19.235 19.9065 17.5619L20 17.0894V6.13675L19.9061 5.68184C19.6698 4.53804 19.2591 3.64001 18.5681 2.74519C17.4573 1.30699 15.7482 0.317482 13.9235 0.0561212L13.9219 0.0559099ZM12.5809 2.95132L12.5917 4.89481L12.5941 4.8955C12.8385 4.96627 13.0859 5.10786 13.297 5.27883C13.508 5.44986 13.6965 5.66152 13.8126 5.88417C13.9115 6.07575 13.9755 6.23948 14.0115 6.46503C14.0461 6.6815 14.0546 6.95162 14.0546 7.35471V7.88798H18.8733V7.29808C18.8733 6.12213 18.7779 5.56158 18.4714 4.80493C18.2826 4.34054 18.1924 4.17238 17.8767 3.70825C17.2325 2.76341 16.4724 2.12496 15.4015 1.63196C14.6028 1.26522 13.781 1.08612 12.785 1.07511L12.7835 1.07509L12.5739 1.07147L12.5809 2.95132ZM12.6648 6.20254C12.3864 5.9023 11.9696 5.8226 11.6076 5.98542C11.4126 6.07545 11.2174 6.2554 11.1151 6.43802L11.1143 6.43929C11.1089 6.44799 11.0912 6.47607 11.0822 6.74385C11.0731 7.0165 11.0721 7.5 11.0721 8.4043C11.0721 9.33727 11.0731 9.82014 11.0832 10.0885C11.0926 10.34 11.1098 10.3722 11.1242 10.3993L11.1268 10.4042L11.1283 10.4072C11.1626 10.4762 11.2312 10.5653 11.3199 10.6507C11.4083 10.7359 11.5009 10.8023 11.5718 10.836C11.6287 10.863 11.7516 10.8907 11.9029 10.9009C12.0523 10.9109 12.188 10.9011 12.2647 10.8793L12.2694 10.8781C12.4484 10.8313 12.6804 10.6512 12.7965 10.4515L12.8889 10.2927V8.4043L12.889 8.03834C12.8894 7.1952 12.8897 6.79057 12.8626 6.56266C12.8481 6.44095 12.828 6.39494 12.8101 6.36599C12.7913 6.33567 12.7705 6.31385 12.7254 6.26662C12.709 6.24941 12.6887 6.22814 12.6648 6.20254ZM5.1235 8.95903L5.15002 17.1583L5.24998 17.5886C5.56482 18.9441 6.14566 19.98 7.10951 20.9245C8.05136 21.8433 9.11136 22.426 10.4045 22.7292C10.4978 22.7511 10.5923 22.7715 10.688 22.7905C11.1395 22.8809 11.2482 22.8918 12 22.8918C12.6657 22.8918 12.8269 22.8833 13.1685 22.8186C13.2127 22.8102 13.2599 22.8009 13.3116 22.7906C14.6325 22.5304 15.7842 21.9559 16.7356 21.0821C17.7738 20.1315 18.416 19.0183 18.75 17.5884L18.85 17.1583L18.8765 8.95903L16.4766 8.96593L14.068 8.97633L14.0506 9.5793C14.0353 10.2688 14.0214 10.451 13.9313 10.677C13.7228 11.2264 13.3006 11.6522 12.7487 11.8753L12.7475 11.8758C12.6322 11.9216 12.5368 11.9543 12.4179 11.9728C12.3047 11.9904 12.1779 11.9939 12.0014 11.9939C11.6931 11.9977 11.4996 11.979 11.3157 11.9181L11.3139 11.9175C10.7536 11.7267 10.2861 11.2931 10.0522 10.752C9.99694 10.6245 9.96271 10.5331 9.94294 10.3653C9.92503 10.2133 9.91807 9.99121 9.90652 9.59968L9.90649 9.59844L9.89189 8.97632L7.5042 8.96593L5.1235 8.95903Z" fill="#232451"/>
</g>
</svg>
