<svg width="24" height="24" viewBox="0 0 24 24" fill="none" xmlns="http://www.w3.org/2000/svg">
<g id="Frame 80">
<g id="Vector">
<path fill-rule="evenodd" clip-rule="evenodd" d="M12.8257 0.00777374C13.9737 0.0202595 14.95 0.225946 15.9005 0.655677C17.1522 1.22305 18.0615 1.97394 18.8169 3.06492C19.1752 3.58364 19.2965 3.8043 19.516 4.33589C19.8844 5.23125 19.992 5.91103 19.992 7.18265V7.80814H20L19.9664 17.4153L19.8425 17.9401C19.4604 19.5507 18.7134 20.8351 17.5048 21.9249C16.3971 22.9266 15.0553 23.5839 13.5298 23.88C12.9848 23.9873 12.8111 24 11.9951 24C11.1786 24 11.0052 23.9873 10.4593 23.8797C8.81631 23.5587 7.47477 22.869 6.30592 21.7462L6.30505 21.7454C5.18715 20.6669 4.50873 19.4703 4.14775 17.9401L4.02364 17.4142L4.03174 8.34577L4 7.18265C4 5.91103 4.10753 5.23185 4.47595 4.33649C4.69544 3.80491 4.81664 3.58412 5.175 3.0654C5.93043 1.97442 6.83948 1.22327 8.09126 0.655905C9.04173 0.226175 10.0185 0.0202604 11.1664 0.00777466L11.1679 0.0077602L12.102 0L12.8257 0.00777374ZM16.6753 7.81589L14.4917 7.80977V7.24093C14.4917 6.82753 14.4834 6.52603 14.4427 6.27511C14.3981 6.00083 14.3175 5.80012 14.2027 5.58117L14.2017 5.57923C14.0542 5.30076 13.8231 5.04911 13.5757 4.85171C13.3284 4.65446 13.0287 4.48253 12.7173 4.39373L12.6646 4.37872L12.6585 4.37811L12.6679 2.71414L12.6739 1.10868L12.8125 1.11017C13.8074 1.121 14.6157 1.29598 15.4008 1.65087C16.463 2.13232 17.2083 2.74897 17.8462 3.67005C18.1638 4.12974 18.2469 4.28313 18.4346 4.73767C18.7344 5.46617 18.8308 5.99906 18.8308 7.18265V7.80979L16.6787 7.81589H16.6753ZM11.5066 2.70823L11.4973 4.3647L11.3348 4.37667L11.2749 4.39373C10.9636 4.48253 10.4165 4.85171 10.4165 4.85171C10.1691 5.04911 9.93803 5.30076 9.79056 5.57923L9.78954 5.58117C9.67472 5.80012 9.59409 6.00083 9.54957 6.27511C9.50908 6.52457 9.50062 6.82403 9.50053 7.23374L9.48488 7.80486L5.1782 7.78963L5.16145 7.17556C5.16183 5.99711 5.2584 5.46487 5.55745 4.73799C5.74528 4.2831 5.82808 4.13029 6.14584 3.67031C6.78375 2.74912 7.52912 2.1324 8.59134 1.65091C9.37626 1.29607 10.1843 1.12108 11.179 1.11018L11.5127 1.10737L11.5066 2.70823ZM5.1925 8.89216L5.185 17.2927L5.28091 17.6991C5.59622 19.0357 6.17259 20.0457 7.13234 20.9717C8.13882 21.9384 9.27403 22.5227 10.6942 22.8001C11.1343 22.8868 11.2227 22.8975 11.9951 22.8975C12.7676 22.8975 12.8549 22.887 13.295 22.8003L13.2968 22.7999C14.6149 22.5442 15.7583 21.9818 16.7039 21.1266C17.7356 20.1965 18.3745 19.1103 18.7094 17.699L18.8055 17.2915L18.8349 8.91225L16.6787 8.91836H16.6753L14.4893 8.91223L14.4866 9.53724C14.471 10.2295 14.4591 10.4797 14.3396 10.7757C14.0883 11.4258 13.5782 11.9327 12.9122 12.1977L12.9092 12.1989C12.7789 12.2499 12.6506 12.2945 12.4874 12.3195C12.3393 12.3421 12.1823 12.3454 11.9988 12.3454C11.6636 12.3494 11.4147 12.3303 11.1668 12.2495L11.1621 12.248C10.4805 12.0194 9.91917 11.5043 9.63812 10.8644L9.46477 8.90727L5.1925 8.89216Z" fill="#232451"/>
<path fill-rule="evenodd" clip-rule="evenodd" d="M8.03419 16.4704C7.76825 16.4704 7.64855 16.1298 7.85364 15.9566L11.75 13.0663C11.8548 12.9779 12.0063 12.9779 12.1111 13.0663L16.0907 15.9566C16.2958 16.1298 16.1761 16.4704 15.9101 16.4704H8.03419Z" fill="#232451"/>
<path fill-rule="evenodd" clip-rule="evenodd" d="M8.03419 18.1582C7.76825 18.1582 7.64855 18.4988 7.85364 18.6719L11.75 21.5664C11.8548 21.6548 12.0063 21.6548 12.1111 21.5664L16.0907 18.6719C16.2958 18.4988 16.1761 18.1582 15.9101 18.1582H8.03419Z" fill="#232451"/>
</g>
</g>
</svg>
